<?xml version="1.0" encoding="UTF-8" standalone="no"?>
<svg
   width="1200"
   height="630"
   viewBox="0 0 1200 630"
   version="1.1"
   xml:space="preserve"
   style="clip-rule:evenodd;fill-rule:evenodd;stroke-linejoin:round;stroke-miterlimit:2"
   id="svg30"
   sodipodi:docname="WEPN_logo_1200x630.svg"
   inkscape:version="1.4 (86a8ad7, 2024-10-11)"
   inkscape:export-filename="WEPN_logo_1200x630.jpg"
   inkscape:export-xdpi="96"
   inkscape:export-ydpi="96"
   xmlns:inkscape="http://www.inkscape.org/namespaces/inkscape"
   xmlns:sodipodi="http://sodipodi.sourceforge.net/DTD/sodipodi-0.dtd"
   xmlns="http://www.w3.org/2000/svg"
   xmlns:svg="http://www.w3.org/2000/svg"><defs
     id="defs30" /><sodipodi:namedview
     id="namedview30"
     pagecolor="#ffffff"
     bordercolor="#000000"
     borderopacity="0.25"
     inkscape:showpageshadow="2"
     inkscape:pageopacity="0.0"
     inkscape:pagecheckerboard="0"
     inkscape:deskcolor="#d1d1d1"
     inkscape:zoom="0.9407497"
     inkscape:cx="508.1054"
     inkscape:cy="444.85797"
     inkscape:window-width="2560"
     inkscape:window-height="1369"
     inkscape:window-x="-8"
     inkscape:window-y="-8"
     inkscape:window-maximized="1"
     inkscape:current-layer="svg30" /><rect
     style="clip-rule:evenodd;fill-rule:nonzero;stroke-linejoin:round;stroke-miterlimit:2;fill:#ffffff;fill-opacity:1;stroke-width:0.999999"
     id="rect42"
     width="1200"
     height="630"
     x="1.27795e-05"
     y="-2.1268497e-06" /><path
     id="W"
     d="M 1.27795e-5,-2.1268498e-6 H 89.999217 V 149.07068 L 149.99924,74.535617 209.99927,149.07068 V -2.1268498e-6 h 89.99921 V 298.14192 H 209.99927 L 149.99924,223.6063 89.999217,298.14192 H 1.27795e-5 Z"
     style="clip-rule:evenodd;fill-rule:nonzero;stroke-width:0.557688;stroke-linejoin:round;stroke-miterlimit:2" /><path
     id="E"
     d="M 1780.83,1209.93 V 675.327 h 537.932 v 200.476 h -376.553 v 133.651 h 376.553 v 200.476 z m 161.379,-221.86 v -90.883 h 215.174 v 90.883 z"
     style="clip-rule:evenodd;fill-rule:nonzero;stroke-linejoin:round;stroke-miterlimit:2"
     transform="matrix(0.55768845,0,0,0.55768845,-663.1529,-376.62207)" /><path
     id="P"
     d="m 1189.11,1804.99 v -537.933 h 537.932 v 353.019 h -376.553 v 184.914 z m 376.553,-336.208 v -50.431 h -215.174 v 50.431 z"
     style="clip-rule:evenodd;fill-rule:nonzero;stroke-linejoin:round;stroke-miterlimit:2"
     transform="matrix(0.55768845,0,0,0.55768845,-663.1529,-376.62207)" /><path
     id="N"
     d="m 1780.83,1804.99 v -534.603 h 160.381 l 213.841,267.301 v -267.301 h 160.381 v 534.603 h -160.381 l -213.841,-267.302 v 267.302 z"
     style="clip-rule:evenodd;fill-rule:nonzero;stroke-linejoin:round;stroke-miterlimit:2"
     transform="matrix(0.55768845,0,0,0.55768845,-663.1529,-376.62207)" /><text
     xml:space="preserve"
     style="font-style:normal;font-variant:normal;font-weight:500;font-stretch:normal;font-size:96px;font-family:Lexend;-inkscape-font-specification:'Lexend Medium';text-align:start;writing-mode:lr-tb;direction:ltr;text-anchor:start;fill:#000000;fill-opacity:1;fill-rule:nonzero;stroke-width:0.999999"
     x="683.44611"
     y="170.03999"
     id="text33"><tspan
       sodipodi:role="line"
       id="tspan33"
       x="683.44611"
       y="170.03999">Wales</tspan><tspan
       sodipodi:role="line"
       x="683.44611"
       y="290.03998"
       id="tspan34">Electronic</tspan><tspan
       sodipodi:role="line"
       x="683.44611"
       y="410.03998"
       id="tspan35">Producers</tspan><tspan
       sodipodi:role="line"
       x="683.44611"
       y="530.03998"
       id="tspan37">Network</tspan></text></svg>
